<?xml version="1.0" standalone="no"?>
<!DOCTYPE svg PUBLIC "-//W3C//DTD SVG 20010904//EN"
 "http://www.w3.org/TR/2001/REC-SVG-20010904/DTD/svg10.dtd">
<svg version="1.0" xmlns="http://www.w3.org/2000/svg"
 width="1010.000000pt" height="1010.000000pt" viewBox="0 0 1010.000000 1010.000000"
 preserveAspectRatio="xMidYMid meet">

<g transform="translate(0.000000,1010.000000) scale(0.100000,-0.100000)"
fill="#000000" stroke="none">
<path d="M5660 9834 c0 -5 -11 -88 -24 -184 -13 -96 -22 -178 -19 -182 2 -5
19 -8 37 -8 30 0 40 -8 87 -70 44 -58 58 -70 82 -70 19 0 28 -4 24 -12 -2 -7
-33 -102 -68 -212 l-63 -199 -86 6 c-440 31 -637 32 -965 3 -82 -7 -151 -13
-151 -12 -6 5 -114 358 -114 370 0 10 9 16 24 16 17 0 35 15 64 53 57 76 70
87 102 87 16 0 31 3 33 8 3 4 -6 88 -19 187 -13 99 -24 182 -24 184 0 4 -105
-6 -158 -16 l-34 -6 7 -56 c3 -31 8 -70 11 -88 7 -37 2 -39 -102 -49 l-71 -6
-7 73 c-11 115 -1 107 -112 93 -52 -7 -98 -14 -100 -17 -3 -3 0 -42 7 -86 6
-45 9 -84 7 -87 -6 -6 -115 -24 -144 -24 -19 0 -22 9 -31 85 -6 47 -12 88 -15
90 -2 2 -37 -1 -78 -6 -130 -18 -118 -5 -105 -109 8 -63 8 -90 1 -90 -6 0 -42
-5 -80 -10 -52 -8 -71 -7 -77 1 -4 7 -10 48 -14 92 l-7 79 -37 -5 c-20 -3 -65
-9 -100 -13 l-64 -7 6 -61 c3 -34 14 -118 23 -188 l17 -128 46 0 c41 0 53 -6
103 -49 44 -38 62 -47 82 -44 l26 5 -5 -108 c-16 -321 -15 -314 -38 -319 -248
-51 -621 -158 -812 -230 -66 -26 -126 -47 -134 -48 -9 -1 -66 78 -142 198 -70
110 -128 203 -128 206 -1 4 12 12 28 19 22 9 30 20 35 49 5 31 12 41 36 51 17
7 32 16 35 20 4 6 -100 258 -111 269 -2 2 -27 -7 -56 -19 -29 -13 -72 -31 -95
-41 l-43 -18 29 -65 29 -64 -75 -32 c-41 -17 -77 -30 -79 -28 -2 2 -15 30 -29
61 -13 31 -28 57 -32 57 -5 0 -48 -16 -96 -37 -97 -40 -94 -33 -59 -119 l21
-52 -76 -32 c-60 -25 -78 -29 -84 -18 -5 7 -9 16 -9 19 0 4 -9 27 -20 52 l-20
45 -93 -40 c-50 -22 -93 -41 -95 -43 -3 -2 105 -264 112 -272 1 -2 16 3 33 9
26 10 35 9 63 -9 l33 -21 53 24 53 23 30 -72 c16 -40 50 -120 75 -179 44 -104
44 -107 25 -124 -41 -37 -11 -104 47 -104 18 0 37 -37 138 -275 l117 -276 -21
-26 c-27 -35 -25 -75 6 -112 30 -36 75 -41 124 -16 29 15 30 15 30 -8 0 -25
22 -49 53 -60 18 -7 25 -57 7 -57 -19 0 -50 -40 -50 -63 0 -28 29 -57 57 -57
11 0 67 20 124 46 142 62 393 153 574 208 1395 422 2836 403 4145 -56 129 -45
395 -151 452 -179 68 -34 118 -17 118 40 0 28 -26 61 -48 61 -23 0 -11 30 26
67 21 21 41 44 43 52 4 11 9 11 26 2 38 -20 91 -14 118 14 34 33 35 97 2 128
l-24 22 124 292 c113 264 127 292 151 298 34 8 62 33 62 55 0 10 -9 29 -20 43
l-20 25 71 168 c39 93 74 172 78 177 4 4 29 -2 56 -14 l49 -22 36 20 c28 16
41 18 63 11 16 -6 30 -8 32 -7 13 14 114 264 108 270 -7 5 -115 51 -179 76 -8
3 -14 1 -14 -5 0 -5 -11 -35 -25 -65 l-24 -56 -73 31 c-40 18 -74 33 -76 34
-2 1 8 29 22 63 14 33 26 62 26 65 0 4 -155 72 -178 78 -8 2 -23 -21 -39 -57
-14 -33 -26 -61 -28 -63 -2 -2 -146 57 -153 63 -1 1 9 27 23 59 29 65 30 72
13 79 -7 3 -50 21 -94 40 l-81 35 -57 -131 c-31 -73 -56 -135 -56 -139 0 -4
15 -14 34 -22 28 -11 34 -20 40 -54 5 -33 11 -42 37 -51 21 -7 28 -15 23 -23
-18 -29 -286 -453 -289 -456 -1 -1 -51 17 -111 42 -207 84 -492 174 -720 226
-49 11 -99 22 -110 25 -21 5 -22 12 -28 182 -3 98 -8 202 -11 231 l-5 52 31 0
c22 0 46 13 87 48 53 45 60 49 100 44 31 -3 42 -1 42 9 0 8 11 92 24 187 16
120 19 175 12 178 -25 8 -177 25 -185 20 -5 -3 -12 -39 -15 -79 -4 -40 -11
-78 -14 -85 -6 -8 -25 -9 -72 -2 -36 5 -71 10 -79 10 -13 0 -13 2 2 164 2 18
-9 21 -92 33 -52 7 -96 11 -98 9 -2 -2 -8 -42 -15 -90 -8 -68 -14 -86 -27 -86
-28 1 -143 19 -148 23 -2 3 1 42 7 87 6 45 9 85 5 88 -6 7 -188 31 -194 26 -2
-2 -8 -42 -14 -90 l-10 -86 -66 7 c-106 11 -114 14 -108 44 3 14 9 54 12 87 7
59 6 62 -16 67 -48 12 -169 19 -169 11z m343 -660 c42 -7 45 -20 27 -97 -5
-23 -14 -68 -21 -101 l-11 -59 -50 6 c-28 4 -53 9 -56 12 -3 3 5 59 17 125 25
130 21 126 94 114z m-1690 -56 c19 -86 39 -219 34 -224 -4 -4 -28 -9 -55 -12
l-49 -4 -21 108 c-29 142 -29 142 11 147 70 8 75 8 80 -15z m2195 -14 c21 -6
23 -11 18 -53 -3 -25 -8 -81 -11 -123 l-7 -78 -31 0 c-77 0 -78 2 -72 104 10
153 11 156 48 156 18 0 42 -3 55 -6z m-2684 -56 c3 -13 8 -68 11 -122 7 -112
5 -116 -62 -116 l-41 0 -7 88 c-3 48 -8 104 -11 124 -5 34 -4 37 23 41 69 10
82 8 87 -15z m2394 -312 c99 -52 156 -200 172 -450 5 -82 9 -151 7 -152 -2 -2
-43 3 -92 11 -50 8 -180 26 -289 40 -110 14 -201 27 -203 29 -5 5 21 110 49
196 78 243 237 388 356 326z m-2084 -37 c58 -16 153 -116 195 -204 37 -78 78
-200 87 -256 l6 -37 -43 -6 c-24 -3 -154 -22 -288 -41 -135 -19 -246 -33 -249
-31 -8 9 19 264 35 326 31 124 76 204 137 241 35 22 64 24 120 8z m4158 -61
c-8 -36 -85 -218 -93 -218 -18 0 -89 33 -89 41 0 5 16 47 35 94 20 47 40 97
45 110 l9 25 48 -19 c28 -11 47 -25 45 -33z m-6187 -107 c25 -62 43 -117 38
-121 -4 -4 -27 -14 -50 -23 l-41 -16 -47 116 c-25 63 -44 117 -43 119 5 4 93
42 94 40 1 0 23 -52 49 -115z m6112 -309 c9 -6 -21 -86 -109 -294 l-122 -287
-35 16 c-20 9 -104 43 -188 77 -84 34 -152 66 -153 73 0 19 113 164 187 238
81 80 159 130 252 162 66 22 145 30 168 15z m-5945 -85 c40 -20 99 -57 130
-81 58 -46 179 -181 211 -235 l17 -29 -108 -42 c-59 -24 -142 -58 -185 -78
-42 -19 -79 -33 -81 -31 -2 4 -211 494 -224 528 -4 11 10 13 81 9 74 -4 96
-10 159 -41z"/>
<path d="M4185 7535 c-77 -101 -219 -233 -329 -307 -228 -152 -424 -213 -681
-211 -204 1 -369 43 -594 149 -63 30 -118 51 -121 47 -4 -5 -235 -268 -513
-585 -279 -317 -507 -578 -507 -580 0 -2 30 -34 66 -73 252 -263 416 -634 486
-1100 17 -118 18 -624 1 -715 -39 -205 -36 -533 8 -792 117 -688 504 -1262
1127 -1672 245 -161 455 -266 707 -353 441 -152 801 -335 1020 -520 121 -102
190 -196 252 -343 10 -24 11 -24 18 -5 22 63 82 168 129 223 197 232 613 465
1163 652 248 84 589 265 813 431 540 400 881 929 995 1543 50 273 58 596 19
816 -22 121 -25 557 -6 700 64 473 230 862 478 1120 l82 85 -509 580 c-280
318 -513 583 -518 588 -5 5 -46 -10 -97 -36 -256 -128 -513 -183 -742 -157
-247 27 -466 125 -685 308 -77 64 -203 200 -235 255 l-16 27 -877 0 -876 0
-58 -75z m1593 -723 c346 -309 725 -482 1117 -511 l90 -6 -727 -730 -727 -730
-1 205 0 205 207 207 208 208 -840 0 -840 0 213 -213 212 -212 0 -200 0 -200
-724 724 c-399 399 -723 728 -721 731 2 4 51 10 107 13 174 11 399 72 581 156
175 80 384 223 527 359 l75 71 578 1 578 0 87 -78z m-2486 -1019 l558 -558 0
-835 0 -835 208 208 207 207 205 0 205 -1 -733 -729 -733 -730 -25 17 c-46 30
-203 213 -275 320 -122 183 -198 367 -246 592 -24 114 -27 147 -27 341 -1 140
3 229 11 254 7 21 18 138 24 260 25 448 -27 865 -156 1251 -53 158 -123 329
-169 411 l-24 42 161 185 161 185 45 -14 c40 -12 108 -76 603 -571z m4457 402
l162 -185 -31 -61 c-168 -332 -273 -713 -311 -1128 -13 -152 -6 -665 10 -741
23 -100 32 -277 21 -405 -34 -418 -187 -763 -470 -1057 l-109 -113 -738 738
-738 737 200 0 200 0 207 -207 208 -208 0 840 0 840 548 548 547 547 65 19
c36 10 65 19 66 20 1 0 74 -82 163 -184z m-2579 -1340 l0 -385 385 0 385 0 0
-65 0 -65 -385 0 -385 0 0 -385 0 -385 -65 0 -65 0 0 385 0 385 -385 0 -385 0
0 65 0 65 385 0 385 0 0 385 0 385 65 0 65 0 0 -385z m1183 -2123 l417 -417
-86 -55 c-132 -83 -343 -185 -468 -226 -331 -109 -753 -302 -971 -445 -60 -39
-115 -74 -122 -76 -6 -3 -45 18 -85 45 -246 166 -603 333 -1014 475 -73 25
-187 73 -255 107 -128 64 -319 177 -319 188 0 4 183 190 407 414 l408 408 835
0 835 0 418 -418z"/>
<path d="M4890 6270 l0 -270 40 0 40 0 0 115 0 115 105 0 c99 0 107 -2 130
-25 21 -20 25 -34 25 -83 0 -33 3 -74 6 -91 6 -30 9 -31 56 -31 49 0 49 0 34
22 -10 14 -16 44 -16 83 0 77 -16 132 -41 145 -19 11 -19 12 9 44 35 40 47 92
33 144 -23 83 -73 102 -272 102 l-149 0 0 -270z m330 173 c17 -22 21 -37 17
-68 -9 -65 -31 -75 -158 -75 l-109 0 0 85 0 85 114 0 c113 0 115 0 136 -27z"/>
<path d="M3158 4670 c-52 -28 -78 -75 -78 -143 0 -79 28 -107 140 -136 135
-35 169 -50 176 -76 16 -66 -19 -112 -94 -122 -89 -12 -155 25 -168 93 -6 31
-9 34 -41 34 l-36 0 5 -43 c7 -57 31 -92 86 -124 89 -53 250 -27 305 48 27 37
33 106 14 152 -21 49 -60 71 -172 97 -52 11 -105 30 -119 41 -50 39 -25 110
45 129 75 21 151 -12 164 -70 6 -26 11 -30 41 -30 30 0 34 3 34 28 0 45 -33
94 -80 119 -57 30 -167 32 -222 3z"/>
<path d="M6770 4410 l0 -270 128 0 c149 0 186 8 232 52 47 46 72 110 78 195 9
133 -32 223 -121 268 -47 23 -62 25 -184 25 l-133 0 0 -270z m287 180 c44 -27
65 -73 71 -155 5 -90 -11 -150 -53 -192 -33 -33 -34 -33 -129 -33 l-96 0 0
200 0 200 88 0 c69 0 94 -4 119 -20z"/>
<path d="M4977 2558 c-54 -145 -98 -267 -97 -271 0 -5 16 -7 36 -5 36 3 37 5
64 78 l27 75 106 3 105 3 29 -81 28 -80 38 0 c23 0 37 5 37 13 0 6 -42 127
-93 267 l-93 255 -45 3 -44 2 -98 -262z m177 67 c20 -55 36 -103 36 -107 0 -5
-34 -8 -75 -8 -41 0 -75 3 -75 7 0 11 73 214 76 211 1 -2 19 -48 38 -103z"/>
<path d="M973 4590 c-187 -247 -263 -583 -174 -764 17 -34 40 -71 51 -81 20
-18 21 -18 35 1 36 46 105 204 119 275 21 105 28 266 19 459 l-8 165 -42 -55z"/>
<path d="M9132 4412 c-4 -261 10 -387 56 -504 28 -73 90 -178 104 -178 15 0
67 82 85 133 14 39 18 79 17 162 -2 133 -30 238 -104 390 -44 92 -132 225
-148 225 -4 0 -8 -102 -10 -228z"/>
<path d="M535 3995 c-11 -72 0 -214 22 -276 34 -99 84 -170 201 -286 l113
-111 -6 41 c-27 175 -112 376 -243 574 -73 112 -79 115 -87 58z m280 -474 c12
-37 26 -87 30 -111 l7 -44 -58 51 c-33 28 -70 62 -83 77 l-24 25 43 51 c49 59
48 60 85 -49z"/>
<path d="M9565 3978 c-133 -180 -242 -426 -270 -607 l-7 -45 86 80 c141 128
206 225 241 359 15 59 18 194 6 250 l-7 30 -49 -67z"/>
<path d="M1167 3959 c-80 -42 -161 -150 -205 -271 -22 -61 -27 -95 -30 -201
-2 -71 0 -133 5 -138 11 -11 112 131 184 261 59 105 104 228 115 318 6 47 5
52 -12 52 -11 -1 -36 -10 -57 -21z m56 -26 c-11 -79 -36 -161 -72 -238 -43
-92 -136 -244 -180 -295 l-30 -35 -1 99 c0 166 48 299 148 408 44 47 111 95
139 98 1 0 -1 -17 -4 -37z"/>
<path d="M8920 3952 c0 -53 39 -184 83 -276 59 -123 206 -343 218 -325 15 23
10 210 -6 274 -36 141 -118 265 -214 327 -59 37 -81 37 -81 0z"/>
<path d="M1194 3581 c-84 -38 -160 -149 -190 -277 -19 -82 -15 -272 8 -344
l14 -45 72 145 c77 157 116 261 138 378 15 80 19 162 7 162 -5 0 -26 -9 -49
-19z m36 -114 c-6 -40 -26 -118 -45 -174 -35 -104 -141 -333 -155 -333 -17 0
-33 135 -27 234 10 185 89 334 202 382 28 12 30 11 33 -12 2 -14 -2 -57 -8
-97z"/>
<path d="M8910 3543 c0 -67 26 -184 66 -293 29 -82 138 -305 153 -314 15 -10
41 126 41 217 0 92 -25 209 -60 277 -39 77 -112 144 -177 164 -22 7 -23 5 -23
-51z"/>
<path d="M510 3524 c0 -176 96 -342 283 -484 51 -39 109 -84 130 -101 20 -16
37 -28 37 -26 0 2 -7 28 -16 58 -41 141 -199 382 -354 542 l-79 82 -1 -71z
m226 -202 c76 -99 159 -241 183 -313 11 -32 18 -59 15 -59 -14 0 -197 146
-241 193 -67 71 -126 163 -143 222 -13 46 -13 46 21 81 l34 35 38 -43 c21 -24
63 -76 93 -116z"/>
<path d="M9563 3507 c-172 -179 -328 -426 -358 -565 l-7 -34 55 44 c30 23 87
68 127 98 173 131 277 319 268 485 l-3 58 -82 -86z"/>
<path d="M1247 3190 c-91 -61 -147 -190 -147 -338 0 -48 5 -107 10 -132 14
-64 61 -190 70 -190 11 0 86 231 111 338 11 49 23 145 26 220 7 151 6 152 -70
102z m60 -107 c-4 -87 -14 -162 -31 -233 -30 -122 -86 -290 -97 -290 -4 0 -14
19 -23 41 -91 227 -45 487 102 580 25 16 48 29 50 29 3 0 2 -57 -1 -127z"/>
<path d="M8838 3173 c-6 -84 10 -223 42 -352 34 -132 87 -291 99 -291 6 0 37
75 63 155 8 25 13 88 13 165 -1 146 -19 208 -86 283 -39 45 -96 87 -117 87 -5
0 -12 -21 -14 -47z"/>
<path d="M552 3088 c5 -29 27 -91 50 -138 59 -122 188 -249 348 -342 63 -37
127 -76 143 -88 34 -27 34 -23 -2 48 -47 93 -146 219 -265 338 -104 103 -257
234 -275 234 -5 0 -4 -24 1 -52z m183 -111 c128 -116 231 -232 297 -333 32
-48 58 -91 58 -96 0 -11 -95 42 -211 118 -104 69 -202 165 -249 247 -29 50
-70 164 -70 194 0 20 61 -25 175 -130z"/>
<path d="M9542 3095 c-91 -69 -273 -246 -345 -336 -68 -85 -163 -236 -154
-245 3 -3 18 3 34 14 15 11 75 47 133 81 158 93 256 182 325 297 39 65 78 180
73 215 -3 20 -7 18 -66 -26z"/>
<path d="M1400 2832 c-52 -40 -68 -61 -101 -129 -59 -121 -48 -280 31 -439 21
-44 47 -91 57 -106 l19 -27 22 117 c32 169 41 253 42 376 0 107 -16 236 -29
236 -3 0 -22 -13 -41 -28z m44 -14 c15 -47 18 -257 6 -358 -12 -108 -44 -277
-53 -286 -7 -8 -53 72 -81 142 -77 190 -50 389 66 489 49 41 53 42 62 13z"/>
<path d="M8705 2837 c-4 -12 -9 -90 -12 -172 -5 -156 6 -274 45 -453 l18 -83
43 75 c130 228 132 445 4 587 -20 22 -49 47 -64 54 -25 13 -27 13 -34 -8z"/>
<path d="M650 2693 c0 -3 18 -43 39 -87 80 -164 192 -266 401 -367 69 -33 155
-75 192 -93 77 -38 77 -33 2 64 -114 147 -331 325 -541 444 -85 47 -93 51 -93
39z m171 -99 c162 -100 331 -241 426 -356 32 -38 59 -73 61 -78 8 -21 -286
117 -368 173 -106 73 -206 189 -250 293 -11 25 -20 48 -20 50 0 7 57 -24 151
-82z"/>
<path d="M9383 2634 c-220 -131 -427 -305 -526 -445 -53 -75 -57 -86 -24 -65
12 8 81 41 153 74 278 125 433 263 504 451 11 28 17 51 12 51 -4 0 -57 -30
-119 -66z"/>
<path d="M1579 2469 c-117 -117 -131 -314 -33 -499 35 -66 117 -183 133 -188
15 -5 23 276 12 412 -11 128 -45 301 -61 311 -5 3 -28 -13 -51 -36z m51 18 c0
-2 9 -38 20 -80 26 -103 42 -334 34 -486 l-7 -124 -24 29 c-53 64 -113 173
-138 249 -48 143 -26 279 63 377 29 32 52 47 52 35z"/>
<path d="M8520 2484 c-33 -87 -60 -290 -60 -454 0 -106 11 -250 19 -250 12 0
111 143 140 203 93 190 77 368 -43 486 l-45 44 -11 -29z"/>
<path d="M857 2218 c42 -76 153 -189 244 -248 96 -61 174 -96 357 -156 75 -25
147 -52 160 -60 22 -14 23 -14 14 3 -22 40 -128 146 -202 202 -127 96 -340
208 -552 292 l-49 19 28 -52z m115 -19 c140 -61 293 -142 383 -201 72 -47 251
-206 242 -215 -9 -8 -338 112 -411 150 -136 70 -265 187 -315 285 -16 30 -7
29 101 -19z"/>
<path d="M9173 2206 c-299 -131 -488 -257 -615 -409 -29 -34 -36 -48 -23 -42
11 4 94 34 185 65 304 104 452 201 564 370 58 88 55 88 -111 16z m95 -13 c-70
-104 -180 -199 -288 -253 -40 -19 -29 -6 100 125 126 127 179 171 213 174 4 1
-7 -20 -25 -46z"/>
<path d="M1831 2143 c-63 -76 -76 -117 -76 -233 1 -92 4 -112 27 -162 38 -82
101 -171 175 -247 l65 -66 -6 93 c-7 118 -31 280 -58 397 -21 94 -73 241 -88
250 -5 3 -22 -12 -39 -32z m87 -110 c37 -111 93 -440 92 -536 l-1 -32 -67 71
c-122 130 -181 253 -182 379 0 88 22 150 75 214 l29 33 17 -33 c9 -19 26 -62
37 -96z"/>
<path d="M8273 2145 c-49 -97 -92 -273 -117 -480 -20 -166 -24 -225 -15 -225
14 0 130 134 176 203 122 184 124 367 5 507 l-29 34 -20 -39z"/>
<path d="M2123 1818 c-77 -129 -71 -263 18 -414 34 -59 238 -274 259 -274 23
0 -21 239 -71 390 -34 105 -116 279 -151 323 l-23 28 -32 -53z m100 -76 c82
-159 142 -351 171 -550 6 -39 5 -42 -12 -33 -10 5 -54 45 -98 88 -193 190
-247 364 -166 537 17 37 35 66 40 66 5 0 34 -49 65 -108z"/>
<path d="M7952 1798 c-101 -179 -173 -401 -198 -612 l-7 -58 23 12 c43 23 197
184 239 249 75 116 97 233 65 340 -15 50 -63 141 -75 141 -3 0 -24 -33 -47
-72z"/>
<path d="M1090 1844 c0 -16 95 -117 149 -158 129 -99 262 -155 519 -217 90
-22 180 -46 200 -54 35 -14 34 -12 -27 46 -66 63 -187 147 -276 191 -108 54
-253 106 -547 194 -10 3 -18 2 -18 -2z m181 -59 c231 -69 403 -146 535 -236
66 -46 136 -109 121 -109 -4 0 -83 18 -175 41 -279 68 -427 137 -558 261 -74
70 -90 94 -56 84 9 -3 69 -21 133 -41z"/>
<path d="M9020 1838 c-188 -56 -415 -138 -506 -182 -115 -57 -241 -144 -309
-215 l-40 -42 38 16 c21 8 111 33 200 55 240 57 347 99 472 183 65 44 164 138
184 175 13 24 12 25 -39 10z m10 -27 c-16 -31 -134 -133 -201 -173 -85 -52
-191 -94 -321 -128 -61 -16 -109 -27 -107 -25 93 98 191 191 214 203 27 14
399 140 418 141 4 1 3 -8 -3 -18z"/>
<path d="M2471 1540 c-92 -215 -9 -416 263 -637 43 -35 81 -61 84 -58 3 3 -2
13 -11 23 -25 27 -43 88 -56 185 -22 162 -66 273 -173 429 -81 119 -81 119
-107 58z m120 -98 c87 -132 123 -227 149 -387 11 -70 25 -135 30 -145 18 -34
10 -32 -38 8 -130 109 -223 223 -263 324 -30 76 -30 185 0 267 29 75 28 75
122 -67z"/>
<path d="M7598 1506 c-73 -98 -138 -221 -162 -306 -9 -30 -22 -101 -31 -158
-15 -101 -31 -148 -63 -184 -32 -37 7 -15 85 47 141 113 235 230 275 343 28
80 21 214 -14 292 l-24 55 -66 -89z"/>
<path d="M1445 1415 c170 -152 343 -222 670 -270 96 -14 195 -32 220 -39 25
-8 45 -12 45 -10 0 2 -36 31 -80 64 -170 126 -349 193 -690 260 -112 22 -207
40 -210 40 -3 0 18 -21 45 -45z m203 -14 c302 -61 441 -111 606 -221 76 -51
92 -66 59 -56 -10 3 -95 17 -190 31 -262 39 -397 80 -536 165 -53 32 -158 119
-144 120 4 0 96 -18 205 -39z"/>
<path d="M8523 1415 c-235 -47 -367 -87 -488 -147 -85 -43 -211 -126 -241
-159 -17 -19 -17 -19 23 -5 22 8 119 26 216 40 279 42 413 84 550 172 109 71
195 148 160 143 -5 -1 -103 -20 -220 -44z m162 -11 c-103 -90 -274 -173 -433
-210 -63 -15 -255 -44 -259 -40 -2 1 28 34 65 72 64 66 72 71 167 103 85 29
440 109 485 110 8 0 -3 -15 -25 -35z"/>
<path d="M2859 1273 c-8 -28 -14 -94 -14 -159 0 -110 0 -111 43 -198 35 -69
61 -105 125 -170 45 -45 116 -107 157 -138 73 -54 100 -67 67 -30 -31 34 -55
107 -72 215 -21 136 -53 231 -109 321 -43 70 -160 206 -176 206 -4 0 -14 -21
-21 -47z m149 -108 c85 -115 121 -206 148 -379 9 -54 22 -117 30 -139 8 -22
14 -41 14 -44 0 -11 -124 95 -183 156 -128 132 -174 241 -164 390 3 47 11 104
17 126 l12 40 41 -45 c22 -25 60 -72 85 -105z"/>
<path d="M7226 1273 c-143 -152 -205 -283 -236 -497 -14 -91 -31 -145 -60
-187 -12 -16 -18 -29 -14 -29 14 0 157 113 218 173 35 34 82 90 104 125 60 93
77 150 77 262 0 93 -19 200 -35 200 -5 0 -29 -21 -54 -47z"/>
<path d="M1810 1069 c86 -75 233 -144 384 -179 76 -18 130 -25 403 -50 62 -6
131 -17 154 -25 23 -9 44 -13 46 -11 9 8 -143 108 -222 146 -153 74 -319 109
-615 130 -85 6 -162 13 -170 16 -8 2 1 -10 20 -27z m280 -10 c213 -19 362 -58
510 -135 79 -41 166 -102 128 -90 -18 5 -143 19 -337 36 -69 7 -168 22 -220
36 -100 25 -273 105 -326 149 l-30 26 80 -6 c44 -3 132 -11 195 -16z"/>
<path d="M8369 1096 c-2 -2 -80 -9 -174 -16 -289 -20 -483 -63 -632 -139 -61
-31 -207 -130 -201 -136 2 -2 22 2 44 10 39 13 81 18 369 46 152 14 287 48
392 98 81 39 196 111 208 131 6 10 2 14 -6 6z m-34 -25 c-33 -33 -193 -116
-272 -141 -132 -42 -423 -85 -423 -62 0 4 30 37 68 74 67 66 67 66 162 86 52
11 147 25 210 31 235 22 267 24 255 12z"/>
<path d="M3282 1009 c-47 -202 -11 -351 120 -494 58 -64 262 -235 280 -235 4
0 -6 19 -22 43 -17 23 -36 70 -44 107 -8 36 -24 108 -36 161 -22 100 -67 207
-121 286 -41 59 -148 183 -158 183 -4 0 -13 -23 -19 -51z m185 -167 c59 -95
89 -178 118 -327 13 -66 28 -132 34 -147 6 -16 7 -28 3 -28 -16 0 -187 151
-228 201 -102 125 -136 237 -115 384 18 130 16 128 83 55 32 -35 80 -97 105
-138z"/>
<path d="M6795 998 c-132 -146 -191 -266 -231 -469 -25 -128 -48 -193 -82
-231 -29 -33 -1 -18 79 43 119 91 204 173 253 248 60 91 79 149 80 251 1 83
-19 206 -35 215 -4 3 -33 -23 -64 -57z"/>
<path d="M3717 784 c-15 -65 -19 -221 -8 -279 25 -136 127 -287 287 -428 91
-81 119 -97 85 -48 -35 49 -43 82 -52 214 -5 85 -15 149 -29 192 -29 87 -103
198 -199 297 l-78 82 -6 -30z m170 -172 l37 -53 -36 -37 c-20 -20 -56 -59 -79
-85 -39 -44 -44 -47 -56 -31 -26 36 -46 163 -39 253 3 47 9 97 13 110 6 24 9
22 65 -40 32 -35 75 -88 95 -117z"/>
<path d="M6358 738 c-86 -98 -119 -142 -158 -211 -48 -85 -61 -138 -69 -279
-7 -113 -11 -134 -38 -188 -16 -33 -27 -60 -23 -60 12 0 167 145 221 208 105
119 155 226 165 355 7 75 -12 247 -26 247 -5 0 -37 -33 -72 -72z"/>
<path d="M2215 750 c50 -35 160 -89 238 -115 105 -35 224 -53 448 -70 173 -12
246 -22 314 -41 38 -11 -88 76 -174 119 -185 95 -292 117 -611 123 l-245 5 30
-21z m422 -1 c145 -16 275 -53 388 -109 55 -28 111 -59 125 -71 l25 -21 -34 6
c-19 4 -125 13 -235 21 -235 18 -349 37 -466 77 -77 27 -210 92 -210 103 0 10
313 5 407 -6z"/>
<path d="M7545 764 c-175 -21 -295 -53 -418 -115 -73 -36 -201 -118 -194 -125
1 -2 28 3 58 11 31 8 147 21 260 30 317 23 454 54 609 136 130 70 131 69 -90
68 -107 -1 -208 -4 -225 -5z m375 -15 c-40 -27 -157 -81 -222 -103 -80 -27
-210 -51 -333 -61 l-80 -7 70 75 c39 41 79 78 90 81 71 23 506 37 475 15z"/>
<path d="M4176 512 c-39 -193 -35 -334 15 -460 l21 -52 121 0 120 0 -7 79
c-12 143 -55 236 -172 374 -74 87 -90 97 -98 59z"/>
<path d="M5918 493 c-141 -153 -208 -294 -208 -444 l0 -49 115 0 115 0 20 40
c37 73 53 165 46 275 -6 112 -24 225 -36 225 -4 0 -27 -21 -52 -47z"/>
<path d="M2705 471 l-100 -6 67 -38 c89 -51 210 -94 316 -112 48 -9 191 -20
317 -25 206 -8 319 -23 356 -46 5 -3 9 -3 9 0 0 10 -115 83 -187 120 -214 107
-374 129 -778 107z m475 -17 c128 -24 331 -106 395 -159 l20 -17 -20 7 c-11 3
-124 10 -250 15 -330 13 -447 35 -598 113 l-82 42 90 6 c191 12 362 9 445 -7z"/>
<path d="M6950 460 c-145 -31 -349 -122 -430 -191 -19 -17 -30 -28 -24 -25 49
24 152 38 359 46 333 14 460 41 624 133 l74 42 -109 6 c-218 13 -404 9 -494
-11z m465 1 l100 -6 -70 -36 c-126 -65 -273 -103 -420 -108 l-68 -2 64 71 c34
39 70 75 79 80 17 10 164 11 315 1z"/>
<path d="M3355 204 c-11 -1 -82 -8 -158 -15 -76 -7 -140 -15 -142 -19 -8 -13
151 -80 250 -105 65 -17 151 -29 249 -35 83 -6 207 -15 276 -20 69 -6 145 -10
169 -10 l45 0 -55 41 c-68 51 -196 113 -274 133 -111 28 -280 42 -360 30z m53
-74 c-29 -33 -60 -60 -69 -60 -26 0 -140 37 -205 67 l-59 27 90 12 c50 6 136
12 193 13 l103 1 -53 -60z"/>
<path d="M6579 200 c-150 -19 -282 -69 -403 -154 -46 -32 -55 -42 -40 -45 10
-2 91 2 179 8 88 6 225 16 304 22 86 6 181 20 239 34 100 26 258 94 245 105
-24 21 -420 44 -524 30z m389 -22 l115 -11 -56 -29 c-31 -15 -96 -39 -144 -53
-85 -24 -243 -48 -252 -39 -3 2 26 36 64 74 80 81 72 79 273 58z"/>
</g>
</svg>
